<?xml version="1.0" encoding="UTF-8" standalone="no"?>
<svg
   width="1148"
   height="1148"
   viewBox="0 0 1148 1148"
   fill="none"
   version="1.1"
   id="svg100"
   sodipodi:docname="Fosscord-Icon-Rounded-Subtract.svg"
   inkscape:version="1.2.1 (9c6d41e410, 2022-07-14, custom)"
   xmlns:inkscape="http://www.inkscape.org/namespaces/inkscape"
   xmlns:sodipodi="http://sodipodi.sourceforge.net/DTD/sodipodi-0.dtd"
   xmlns="http://www.w3.org/2000/svg"
   xmlns:svg="http://www.w3.org/2000/svg">
  <sodipodi:namedview
     id="namedview102"
     pagecolor="#505050"
     bordercolor="#eeeeee"
     borderopacity="1"
     inkscape:showpageshadow="0"
     inkscape:pageopacity="0"
     inkscape:pagecheckerboard="0"
     inkscape:deskcolor="#505050"
     showgrid="false"
     inkscape:zoom="0.63937282"
     inkscape:cx="574.78202"
     inkscape:cy="574"
     inkscape:window-width="1920"
     inkscape:window-height="1016"
     inkscape:window-x="0"
     inkscape:window-y="0"
     inkscape:window-maximized="1"
     inkscape:current-layer="svg100" />
  <path
     fill-rule="evenodd"
     clip-rule="evenodd"
     d="M340 0C152.223 0 0 152.223 0 340V808C0 995.777 152.223 1148 340 1148H808C995.777 1148 1148 995.777 1148 808V340C1148 152.223 995.777 0 808 0H340ZM862 283.003L285 283V864C324.697 864.023 364.29 859.935 403.156 851.801C627.023 804.889 803.291 627.415 849.881 401.987C857.961 362.849 862.022 322.978 862 283.003ZM403.156 742.76V630.815C406.098 629.243 409.017 627.648 411.915 626.03C467.668 594.894 517.925 554.691 560.653 507.046H403.156V401.983H737.447C679.971 558.361 557.555 683.015 403.156 742.76Z"
     fill="url(#paint0_linear_6_72)"
     id="path91" />
  <defs
     id="defs98">
    <linearGradient
       id="paint0_linear_6_72"
       x1="574"
       y1="0"
       x2="574"
       y2="1148"
       gradientUnits="userSpaceOnUse">
      <stop
         stop-color="#FF5F00"
         id="stop93"
         offset="0"
         style="stop-color:#8ed1f7;stop-opacity:1;" />
      <stop
         offset="1"
         stop-color="#FF3D00"
         id="stop95"
         style="stop-color:#008aff;stop-opacity:1;" />
    </linearGradient>
  </defs>
</svg>
