<?xml version="1.0" encoding="UTF-8" standalone="no"?>
<svg
   width="512"
   height="512"
   viewBox="0 0 512 512"
   fill="none"
   version="1.1"
   id="svg270"
   xml:space="preserve"
   xmlns="http://www.w3.org/2000/svg"
   xmlns:svg="http://www.w3.org/2000/svg"><g
     clip-path="url(#clip0_1_30)"
     id="g263"><path
       d="m 320.2222,177.84332 c 10.945,0 19.819,8.876 19.819,19.825 v 38.194 c 0,10.949 -8.874,19.823 -19.819,19.823 h -38.183 c -10.945,0 -19.817,-8.874 -19.817,-19.823 v -38.194 c 0,-10.949 8.872,-19.825 19.817,-19.825 z"
       fill="#0185ff"
       id="path257" /><path
       d="m 211.85721,181.58966 c 10.945,0 19.817,8.876 19.817,19.825 v 38.194 c 0,10.949 -8.872,19.823 -19.817,19.823 h -38.183 c -10.945,0 -19.819,-8.874 -19.819,-19.823 v -38.194 c 0,-10.949 8.874,-19.825 19.819,-19.825 z"
       fill="#0185ff"
       id="path259" /><path
       fill-rule="evenodd"
       clip-rule="evenodd"
       d="M 151.638,0 C 67.8905,0 0,67.8905 0,151.638 V 360.362 C 0,444.11 67.8905,512 151.638,512 H 360.362 C 444.11,512 512,444.11 512,360.362 V 151.638 C 512,67.8905 444.11,0 360.362,0 Z m 261.34983,295.85789 c -4.49798,-53.41807 -6.21644,-50.35553 -9.13159,-64.29758 3.31629,-1.33762 8.25568,-3.20772 15.16791,-9.46911 6.77505,-7.40554 9.22351,-14.10648 8.51596,-25.68876 -1.3151,-13.84515 -12.79719,-27.67856 -27.99582,-32.04771 -11.6293,-3.62541 -26.38247,3.19043 -31.456,6.80607 -0.98437,-2.48947 -25.28577,-19.27543 -48.60803,-23.89153 -19.46391,-4.52924 -44.62877,-6.96324 -64.35245,-5.8078 -19.09711,1.11874 -41.57595,4.34196 -65.02518,11.21258 -25.85057,7.57421 -44.08273,23.37633 -43.9949,23.60658 -6.06639,-3.74859 -15.97766,-7.97855 -27.01001,-6.15222 -11.78354,1.52521 -25.631564,11.13418 -30.536752,25.62092 -2.916681,9.66021 -3.821271,20.21967 5.779783,30.96132 4.971042,4.89189 10.557199,8.23863 16.603079,10.39376 -4.18204,15.51265 -6.27354,35.7354 -5.84456,60.80506 -1.02823,49.74894 8.29323,82.45379 59.93679,83.52818 L 348.497,384 c 55.99809,0.52364 69.13566,-26.36509 64.49083,-88.14211 z"
       fill="#0185ff"
       id="path775" /><g
       id="g1676"
       transform="matrix(1.7305623,0,0,1.7305623,-169.43037,-191.3665)"><path
         d="m 239.09414,282.15179 c 1.2649,0 2.29023,1.50042 2.29023,3.35125 v 6.45638 c 0,1.85084 -1.02533,3.3509 -2.29023,3.3509 h -4.41278 c -1.26491,0 -2.29047,-1.50006 -2.29047,-3.3509 v -6.45638 c 0,-1.85083 1.02556,-3.35125 2.29047,-3.35125 z"
         fill="#0185ff"
         id="path259-3"
         style="stroke-width:0.139771" /><path
         d="m 248.28617,282.59912 c 1.2649,0 2.29023,1.4523 2.29023,3.24379 v 6.24937 c 0,1.79149 -1.02533,3.24347 -2.29023,3.24347 h -4.41279 c -1.26491,0 -2.29047,-1.45198 -2.29047,-3.24347 v -6.24937 c 0,-1.79149 1.02556,-3.24379 2.29047,-3.24379 z"
         fill="#0185ff"
         id="path259-3-6"
         style="stroke-width:0.137512" /><path
         style="fill:#0185ff;fill-opacity:1;fill-rule:evenodd;stroke:none;stroke-width:1.60543;stroke-linecap:round;stroke-linejoin:round;stroke-miterlimit:3.5;stroke-dasharray:1.60543, 160.543, 1.60543, 160.543;paint-order:fill markers stroke"
         id="path1539"
         d="m 261.6161,278.95873 a 19.236753,8.4812574 0 0 1 -21.14278,7.33472 19.236753,8.4812574 0 0 1 -17.09851,-9.15757 19.236753,8.4812574 0 0 1 20.38854,-7.73867 19.236753,8.4812574 0 0 1 17.99788,8.8162" /><path
         style="fill:#0185ff;fill-opacity:1;fill-rule:evenodd;stroke:none;stroke-width:0.980735;stroke-linecap:round;stroke-linejoin:round;stroke-miterlimit:3.5;stroke-dasharray:0.980735, 98.0735, 0.980735, 98.0735;paint-order:fill markers stroke"
         id="path1539-7"
         d="m 249.51268,267.15929 a 7.1788321,8.4812574 0 0 1 -7.89013,7.33472 7.1788321,8.4812574 0 0 1 -6.38088,-9.15756 7.1788321,8.4812574 0 0 1 7.60866,-7.73868 7.1788321,8.4812574 0 0 1 6.71651,8.8162" /></g></g><defs
     id="defs268"><clipPath
       id="clip0_1_30"><rect
         width="512"
         height="512"
         fill="#ffffff"
         id="rect265"
         x="0"
         y="0" /></clipPath></defs></svg>
